<svg aria-hidden="true" style="position: absolute; width: 0; height: 0; overflow: hidden;" version="1.1" xmlns="http://www.w3.org/2000/svg" xmlns:xlink="http://www.w3.org/1999/xlink">
<defs>
<symbol id="icon-close" viewBox="0 0 32 32">
<path d="M21.589 8.459l-5.657 5.656-5.656-5.656-1.885 1.885 5.656 5.656-5.656 5.656 1.885 1.885 5.656-5.656 5.657 5.656 1.885-1.885-5.656-5.656 5.656-5.656-1.885-1.885z"></path>
</symbol>
<symbol id="icon-email" viewBox="0 0 32 32">
<path d="M26.667 5.333h-21.333c-1.471 0-2.667 1.196-2.667 2.667v16c0 1.471 1.196 2.667 2.667 2.667h21.333c1.471 0 2.667-1.196 2.667-2.667v-16c0-1.471-1.196-2.667-2.667-2.667zM26.667 8v0.681l-10.667 8.297-10.667-8.296v-0.683h21.333zM5.333 24v-11.941l9.848 7.66c0.233 0.183 0.522 0.283 0.819 0.283s0.585-0.1 0.819-0.283l9.848-7.66 0.003 11.941h-21.336z"></path>
</symbol>
<symbol id="icon-instagram" viewBox="0 0 32 32">
<path d="M15.998 6.161c3.206 0 3.585 0.014 4.846 0.071 1.172 0.052 1.804 0.248 2.226 0.412 0.558 0.216 0.961 0.478 1.378 0.895 0.422 0.422 0.679 0.82 0.9 1.378 0.164 0.422 0.361 1.059 0.412 2.226 0.056 1.266 0.071 1.645 0.071 4.847s-0.014 3.585-0.071 4.847c-0.052 1.172-0.248 1.804-0.412 2.227-0.216 0.558-0.478 0.961-0.895 1.377-0.422 0.422-0.82 0.679-1.378 0.9-0.422 0.164-1.060 0.361-2.226 0.412-1.266 0.056-1.645 0.071-4.847 0.071s-3.585-0.014-4.847-0.071c-1.172-0.052-1.804-0.248-2.226-0.412-0.558-0.216-0.961-0.478-1.378-0.895-0.422-0.422-0.679-0.82-0.9-1.378-0.164-0.422-0.361-1.060-0.412-2.226-0.056-1.266-0.071-1.645-0.071-4.847s0.014-3.585 0.071-4.847c0.052-1.172 0.248-1.804 0.412-2.226 0.216-0.558 0.478-0.961 0.895-1.378 0.422-0.422 0.82-0.679 1.378-0.9 0.422-0.164 1.059-0.361 2.226-0.412 1.261-0.056 1.641-0.071 4.847-0.071h0.001zM15.998 4.001c-3.258 0-3.665 0.014-4.945 0.071-1.275 0.056-2.151 0.262-2.91 0.558-0.792 0.309-1.462 0.717-2.127 1.387-0.67 0.666-1.078 1.336-1.387 2.123-0.295 0.764-0.502 1.636-0.558 2.91-0.056 1.285-0.071 1.692-0.071 4.949s0.014 3.665 0.071 4.945c0.056 1.275 0.262 2.151 0.558 2.91 0.31 0.792 0.717 1.462 1.387 2.127 0.665 0.665 1.336 1.078 2.123 1.383 0.764 0.295 1.636 0.502 2.91 0.558 1.279 0.056 1.687 0.071 4.945 0.071s3.666-0.014 4.945-0.071c1.275-0.056 2.151-0.262 2.91-0.558 0.787-0.305 1.458-0.717 2.123-1.383s1.078-1.336 1.383-2.123c0.295-0.764 0.502-1.635 0.558-2.91 0.056-1.279 0.071-1.687 0.071-4.945s-0.014-3.665-0.071-4.945c-0.056-1.275-0.262-2.151-0.558-2.91-0.295-0.797-0.703-1.467-1.373-2.133-0.665-0.665-1.336-1.078-2.123-1.383-0.764-0.295-1.635-0.502-2.91-0.558-1.284-0.061-1.692-0.075-4.949-0.075l-0.001 0.001z"></path>
<path d="M15.998 9.836c-3.402 0-6.163 2.76-6.163 6.163s2.76 6.163 6.163 6.163c3.403 0 6.163-2.76 6.163-6.163s-2.76-6.163-6.163-6.163zM15.998 19.997c-2.208 0-3.998-1.79-3.998-3.998s1.79-3.998 3.998-3.998c2.208 0 3.998 1.79 3.998 3.998s-1.79 3.998-3.998 3.998z"></path>
<path d="M23.843 9.592c0 0.795-0.644 1.439-1.439 1.439s-1.439-0.644-1.439-1.439 0.644-1.439 1.439-1.439c0.795 0 1.439 0.644 1.439 1.439z"></path>
</symbol>
<symbol id="icon-map-pin" viewBox="0 0 32 32">
<path d="M16 22.667l1.333-2.667v-6.856c2.295-0.596 4-2.667 4-5.144 0-2.941-2.392-5.333-5.333-5.333s-5.333 2.392-5.333 5.333c0 2.477 1.705 4.548 4 5.144v6.856l1.333 2.667zM13.333 8c0-1.471 1.196-2.667 2.667-2.667s2.667 1.196 2.667 2.667c0 1.471-1.196 2.667-2.667 2.667s-2.667-1.196-2.667-2.667z"></path>
<path d="M21.689 14.084l-0.711 2.571c3.455 0.955 5.688 2.791 5.688 4.679 0 2.523-4.38 5.333-10.667 5.333s-10.667-2.811-10.667-5.333c0-1.888 2.233-3.724 5.689-4.68l-0.711-2.571c-4.716 1.304-7.645 4.081-7.645 7.251 0 4.485 5.857 8 13.333 8s13.333-3.515 13.333-8c0-3.169-2.929-5.947-7.644-7.249z"></path>
</symbol>
<symbol id="icon-map" viewBox="0 0 32 32">
<path d="M16 19.2c3.53 0 6.4-2.87 6.4-6.4s-2.87-6.4-6.4-6.4c-3.53 0-6.4 2.87-6.4 6.4s2.87 6.4 6.4 6.4zM16 9.6c1.765 0 3.2 1.435 3.2 3.2s-1.435 3.2-3.2 3.2c-1.765 0-3.2-1.435-3.2-3.2s1.435-3.2 3.2-3.2z"></path>
<path d="M15.072 31.702c0.271 0.193 0.595 0.297 0.928 0.297s0.657-0.104 0.928-0.297c0.486-0.344 11.918-8.598 11.872-18.902 0-7.058-5.742-12.8-12.8-12.8s-12.8 5.742-12.8 12.792c-0.046 10.312 11.386 18.566 11.872 18.91zM16 3.2c5.294 0 9.6 4.306 9.6 9.608 0.034 7.101-7.021 13.477-9.6 15.568-2.578-2.093-9.634-8.47-9.6-15.576 0-5.294 4.306-9.6 9.6-9.6z"></path>
</symbol>
<symbol id="icon-menu" viewBox="0 0 32 32">
<path d="M5.333 8h21.333v2.667h-21.333v-2.667zM5.333 14.667h21.333v2.667h-21.333v-2.667zM5.333 21.333h21.333v2.667h-21.333v-2.667z"></path>
</symbol>
<symbol id="icon-phone" viewBox="0 0 32 32">
<path d="M24.778 17.336c-0.156-0.156-0.342-0.281-0.546-0.365s-0.423-0.128-0.645-0.128c-0.221 0-0.44 0.044-0.645 0.128s-0.39 0.209-0.546 0.365l-2.685 2.685c-1.245-0.371-3.567-1.213-5.039-2.685s-2.314-3.795-2.685-5.039l2.685-2.685c0.157-0.156 0.281-0.342 0.365-0.546s0.128-0.423 0.128-0.645c0-0.221-0.044-0.44-0.128-0.645s-0.209-0.39-0.365-0.546l-6.737-6.737c-0.156-0.157-0.342-0.281-0.546-0.365s-0.423-0.128-0.645-0.128c-0.221 0-0.44 0.044-0.645 0.128s-0.39 0.209-0.546 0.365l-4.568 4.568c-0.64 0.64-1 1.519-0.987 2.417 0.039 2.398 0.674 10.728 7.239 17.293s14.895 7.198 17.295 7.239h0.047c0.889 0 1.73-0.35 2.366-0.987l4.568-4.568c0.157-0.156 0.281-0.342 0.365-0.546s0.128-0.423 0.128-0.645c0-0.221-0.044-0.44-0.128-0.645s-0.209-0.39-0.365-0.546l-6.737-6.739zM24.565 28.64c-2.102-0.035-9.293-0.6-14.944-6.252-5.669-5.669-6.218-12.886-6.252-14.946l3.377-3.377 4.355 4.355-2.178 2.178c-0.198 0.198-0.344 0.442-0.424 0.71s-0.092 0.552-0.035 0.826c0.040 0.194 1.029 4.787 3.825 7.582s7.389 3.784 7.582 3.825c0.274 0.059 0.558 0.048 0.826-0.032s0.512-0.226 0.71-0.425l2.179-2.178 4.355 4.355-3.379 3.377z"></path>
</symbol>
<symbol id="icon-shevron" viewBox="0 0 32 32">
<path d="M12.308 4.726l10.646 10.56-10.646 10.56 3.466 3.495 14.171-14.055-14.171-14.055-3.466 3.495z"></path>
<path d="M3.466 1.231l-3.466 3.495 10.646 10.56-10.646 10.56 3.466 3.495 14.171-14.055-14.171-14.055z"></path>
</symbol>
<symbol id="icon-star-black" viewBox="0 0 32 32">
<path d="M14.761 4.816c0.458-1.089 2.019-1.089 2.478 0l2.705 6.425c0.193 0.459 0.63 0.772 1.132 0.812l7.021 0.556c1.19 0.094 1.672 1.561 0.766 2.328l-5.349 4.527c-0.382 0.323-0.549 0.831-0.432 1.314l1.634 6.769c0.277 1.147-0.986 2.053-2.004 1.439l-6.011-3.627c-0.429-0.259-0.969-0.259-1.399 0l-6.011 3.627c-1.018 0.615-2.281-0.292-2.004-1.439l1.634-6.769c0.117-0.483-0.050-0.991-0.432-1.314l-5.35-4.527c-0.906-0.767-0.424-2.234 0.766-2.328l7.021-0.556c0.502-0.040 0.938-0.353 1.132-0.812l2.705-6.425z"></path>
</symbol>
<symbol id="icon-star-white" viewBox="0 0 32 32">
<path stroke-linejoin="miter" stroke-linecap="butt" stroke-miterlimit="4" stroke-width="1.3333" d="M15.375 5.076c0.229-0.545 1.021-0.545 1.25 0l2.704 6.424c0.291 0.691 0.947 1.16 1.694 1.219l7.021 0.556c0.61 0.048 0.828 0.78 0.388 1.154l-5.35 4.527c-0.573 0.485-0.826 1.25-0.65 1.98l1.635 6.768c0.133 0.549-0.482 1.031-1.013 0.711h-0.001l-6.009-3.626c-0.641-0.387-1.447-0.387-2.089 0l-6.010 3.626c-0.531 0.32-1.146-0.162-1.013-0.711l1.635-6.768c0.176-0.73-0.077-1.495-0.65-1.98l-5.35-4.527c-0.44-0.373-0.222-1.105 0.388-1.154l7.021-0.556c0.747-0.059 1.403-0.527 1.694-1.219l2.704-6.424z"></path>
</symbol>
<symbol id="icon-twitter" viewBox="0 0 32 32">
<path d="M22.901 5.657h3.68l-8.040 9.037 9.459 12.297h-7.406l-5.801-7.458-6.637 7.458h-3.682l8.6-9.666-9.074-11.668h7.594l5.243 6.817 6.064-6.817zM21.61 24.824h2.039l-13.163-17.115h-2.188l13.312 17.115z"></path>
</symbol>
</defs>
</svg>
